<svg version="1.1" id="Layer_1" xmlns="http://www.w3.org/2000/svg" xmlns:xlink="http://www.w3.org/1999/xlink" x="0px" y="0px"
	 width="100%" viewBox="0 0 3000 3000" enable-background="new 0 0 3000 3000" xml:space="preserve">
<path fill="#000000" opacity="1.000000" stroke="none" 
	d="
M1.999997,2764.000000 
	C2.000000,1843.418945 2.000000,922.838013 2.000000,2.128492 
	C1001.821289,2.128492 2001.642578,2.128492 3002.000000,2.128492 
	C3002.000000,922.069763 3002.000000,1842.139648 3001.083008,2763.241699 
	C2997.833740,2764.292480 2995.501221,2764.327148 2993.168701,2764.327148 
	C1999.437866,2764.329590 1005.707092,2764.329590 11.976312,2764.315918 
	C8.650871,2764.315674 5.325434,2764.109863 1.999997,2764.000000 
M2007.000122,410.352722 
	C1542.468994,410.352722 1077.937866,410.352722 612.132385,410.352722 
	C612.132385,279.893951 612.132385,150.491364 612.132385,20.918064 
	C572.362488,20.918064 533.870422,20.918064 494.995941,20.918064 
	C494.995941,194.601425 494.995941,367.693756 494.995941,541.672424 
	C508.247284,541.672424 520.846558,541.672424 533.445801,541.672424 
	C546.444824,541.672424 559.444031,541.640198 572.442932,541.681641 
	C584.948242,541.721497 597.468079,541.486938 610.836426,541.879639 
	C610.836426,607.413208 610.836426,671.583984 610.836426,736.601868 
	C682.972595,736.601868 754.179993,736.601868 825.777405,736.601868 
	C826.000000,740.029419 826.433228,742.641968 826.290283,745.222595 
	C825.760315,754.785889 824.400940,764.344788 824.493835,773.894287 
	C825.193298,845.779358 822.315125,917.696228 826.327515,989.551392 
	C826.327515,1251.198608 826.366455,1512.845947 826.251038,1774.493164 
	C826.242126,1794.729614 831.654907,1813.239136 841.827576,1830.417480 
	C860.841003,1862.525269 889.816650,1882.474121 923.797302,1895.735229 
	C949.116821,1905.616455 975.523315,1910.152588 1002.790894,1909.753174 
	C1013.623169,1909.594604 1024.468628,1910.339478 1035.812866,1910.688477 
	C1035.812866,1914.512817 1035.813110,1917.150879 1035.812744,1919.788818 
	C1035.807739,1955.786133 1035.482544,1991.786987 1035.876953,2027.779907 
	C1036.401489,2075.649414 1037.438721,2123.513428 1038.412231,2171.376709 
	C1038.498901,2175.636719 1039.383667,2179.967529 1040.495483,2184.104980 
	C1047.368774,2209.679932 1061.488159,2230.847168 1081.689331,2247.561768 
	C1117.596558,2277.271973 1159.287109,2291.876709 1205.835327,2292.282959 
	C1236.830566,2292.553711 1267.830200,2292.328369 1298.827881,2292.325195 
	C1302.383179,2292.324707 1305.938599,2292.325195 1310.356934,2292.325195 
	C1310.356934,2297.483154 1310.356812,2301.419678 1310.356934,2305.356445 
	C1310.360107,2380.017578 1310.469849,2454.679199 1310.209961,2529.339355 
	C1310.182495,2537.250488 1312.592896,2543.212891 1317.606812,2549.076660 
	C1344.397949,2580.408936 1370.938843,2611.955078 1397.557739,2643.434326 
	C1421.171021,2671.359619 1444.861206,2699.221191 1468.291260,2727.299561 
	C1472.041992,2731.794189 1475.890869,2733.975342 1481.851685,2733.756348 
	C1493.168945,2733.340332 1504.609131,2732.711670 1515.819580,2733.882568 
	C1528.915771,2735.250000 1536.869629,2729.958008 1545.086060,2720.070801 
	C1592.895752,2662.539795 1641.440186,2605.618652 1689.856201,2548.593262 
	C1694.391357,2543.251709 1696.494873,2537.799316 1696.471191,2530.594971 
	C1696.223755,2455.268066 1696.322510,2379.939941 1696.325317,2304.612305 
	C1696.325439,2300.757568 1696.325439,2296.902832 1696.325439,2292.325684 
	C1701.095703,2292.325684 1704.375732,2292.325439 1707.655762,2292.325684 
	C1737.653564,2292.328857 1767.657104,2291.977539 1797.646851,2292.468506 
	C1815.464722,2292.760254 1832.838745,2290.468506 1849.886475,2285.856934 
	C1889.458496,2275.152832 1924.035767,2256.370850 1948.399414,2222.169434 
	C1961.203247,2204.195312 1969.379883,2184.641357 1968.486206,2161.811768 
	C1967.769775,2143.507812 1968.314453,2125.153564 1968.369141,2106.821533 
	C1968.377930,2103.848633 1968.581909,2100.854004 1968.988770,2097.909668 
	C1969.705200,2092.724121 1971.366455,2087.572266 1971.384644,2082.402100 
	C1971.572144,2029.073486 1971.500488,1975.743896 1971.535034,1922.414551 
	C1971.537598,1918.555420 1971.807373,1914.696533 1971.975830,1910.229614 
	C1976.655762,1910.229614 1980.271606,1910.311646 1983.882690,1910.216309 
	C2008.112793,1909.576904 2032.412231,1910.155640 2056.223877,1904.082397 
	C2098.057129,1893.412842 2134.544922,1874.335938 2160.114502,1838.240845 
	C2172.460693,1820.812378 2180.294678,1801.503174 2180.305664,1779.772461 
	C2180.374756,1643.115967 2179.853271,1506.457153 2180.478271,1369.803467 
	C2181.104248,1232.925781 2178.425781,1096.045166 2182.040527,959.162109 
	C2183.685547,896.877197 2182.336670,834.512085 2182.213135,772.183594 
	C2182.203369,767.288147 2180.855469,762.406921 2180.652100,757.497498 
	C2180.369629,750.672424 2180.581055,743.826904 2180.581055,736.145386 
	C2253.066162,736.145386 2324.243408,736.145386 2396.372314,736.145386 
	C2396.372314,671.119751 2396.372314,606.963623 2396.372314,541.582642 
	C2435.418457,541.582642 2473.528320,541.582642 2511.465332,541.582642 
	C2513.431641,524.822571 2512.676514,28.148220 2510.803223,20.960762 
	C2472.327881,20.960762 2433.838623,20.960762 2394.110352,20.960762 
	C2394.110352,150.997910 2394.110352,280.408203 2394.110352,410.352722 
	C2264.910645,410.352722 2136.955566,410.352722 2007.000122,410.352722 
M2753.174072,2508.134277 
	C2774.870361,2502.518311 2796.603271,2497.040283 2818.250488,2491.241699 
	C2835.054199,2486.740723 2851.756592,2481.862061 2868.492676,2477.110596 
	C2880.785400,2473.620605 2893.048340,2470.025879 2905.345459,2466.552734 
	C2913.883545,2464.141113 2922.953369,2462.930908 2930.900146,2459.264648 
	C2943.053955,2453.656982 2945.328857,2451.945068 2942.492676,2439.032471 
	C2940.816406,2431.401611 2938.032227,2424.021240 2936.032715,2416.452637 
	C2933.525146,2406.960693 2931.580322,2397.315186 2928.905029,2387.874268 
	C2925.327148,2375.248535 2921.412109,2362.713379 2917.396240,2350.218506 
	C2913.982178,2339.596436 2910.219971,2329.086426 2906.393799,2317.889648 
	C2899.384521,2318.739990 2893.323975,2318.776367 2887.655029,2320.284668 
	C2864.158691,2326.536621 2840.810791,2333.343750 2817.349609,2339.730957 
	C2799.863525,2344.491211 2782.291992,2348.937988 2764.749023,2353.487793 
	C2755.213135,2355.960938 2745.317383,2357.473633 2736.186768,2360.986084 
	C2720.458984,2367.036865 2703.904785,2369.786377 2687.879150,2374.568115 
	C2675.891357,2378.144775 2663.742676,2381.188232 2651.634766,2384.351807 
	C2644.692627,2386.165771 2637.633057,2387.545898 2630.727051,2389.480225 
	C2621.315674,2392.116455 2612.055908,2395.299805 2602.629883,2397.878418 
	C2588.973145,2401.614746 2575.180664,2404.856201 2561.528809,2408.608643 
	C2546.058594,2412.861084 2530.732910,2417.642578 2515.245850,2421.828857 
	C2498.745605,2426.289307 2482.047607,2430.027832 2465.593750,2434.643555 
	C2454.245605,2437.827148 2443.403076,2443.500244 2431.904297,2445.279053 
	C2418.427246,2447.364014 2405.936523,2452.046875 2393.035400,2455.693848 
	C2374.639160,2460.894043 2356.154053,2465.780518 2337.761475,2470.993896 
	C2333.372070,2472.238037 2329.199707,2474.247559 2324.108398,2476.223145 
	C2324.699707,2481.494629 2324.739746,2486.469727 2325.885742,2491.175537 
	C2328.914062,2503.608398 2332.427979,2515.923340 2335.737549,2528.288086 
	C2340.412109,2545.752930 2344.778809,2563.308105 2349.868408,2580.650879 
	C2352.537354,2589.746094 2356.518799,2598.451904 2359.800293,2607.373291 
	C2361.054443,2610.781982 2363.507812,2611.835205 2366.819580,2611.527344 
	C2370.098877,2611.222412 2373.420654,2611.078369 2376.634277,2610.424316 
	C2383.977295,2608.930420 2391.281006,2607.233154 2398.572266,2605.498535 
	C2408.121826,2603.226562 2417.716064,2601.094727 2427.159180,2598.435303 
	C2437.851562,2595.423584 2448.321533,2591.616211 2459.030273,2588.672363 
	C2468.846191,2585.973877 2478.959961,2584.347168 2488.750488,2581.570557 
	C2507.991455,2576.113770 2527.015137,2569.884521 2546.283447,2564.531494 
	C2568.819336,2558.270508 2591.542236,2552.686035 2614.143066,2546.655029 
	C2634.474365,2541.229248 2654.747070,2535.584229 2675.052490,2530.061768 
	C2682.667725,2527.990723 2690.353271,2526.163086 2697.917236,2523.922852 
	C2710.439941,2520.213623 2722.868896,2516.189941 2735.380371,2512.442139 
	C2740.703125,2510.847656 2746.134277,2509.614990 2753.174072,2508.134277 
M224.576111,2348.578613 
	C223.910156,2348.541504 223.214325,2348.617920 222.582520,2348.451416 
	C206.375092,2344.181396 190.168594,2339.907715 173.974777,2335.586426 
	C165.718109,2333.383301 157.490219,2331.072266 149.242157,2328.836182 
	C137.150772,2325.558105 125.107407,2322.074951 112.925293,2319.176025 
	C109.202675,2318.290283 105.091164,2319.038574 100.054909,2319.038574 
	C94.909142,2334.886230 89.492912,2350.758057 84.612694,2366.792969 
	C77.919418,2388.785400 71.781334,2410.946533 65.120110,2432.948975 
	C60.604786,2447.863037 64.797714,2456.308350 79.853432,2460.732666 
	C88.041130,2463.138428 96.332199,2465.197998 104.598030,2467.331055 
	C113.488800,2469.625000 122.492737,2471.525635 131.287094,2474.137207 
	C142.566299,2477.487061 153.542679,2481.913330 164.900360,2484.932129 
	C200.865875,2494.493164 236.969543,2503.532959 272.975372,2512.944336 
	C288.503632,2517.003174 303.940918,2521.415283 319.387878,2525.778809 
	C345.651764,2533.197510 371.866272,2540.791748 398.149200,2548.141846 
	C413.376312,2552.399902 428.697205,2556.322754 443.975037,2560.399902 
	C458.252014,2564.209717 472.570312,2567.873047 486.793854,2571.872803 
	C504.814789,2576.940430 522.505432,2583.588379 540.807495,2587.133789 
	C558.603271,2590.581299 575.156189,2598.095947 593.192566,2600.679932 
	C605.674316,2602.468506 617.758606,2607.027344 630.023865,2610.336426 
	C631.612366,2610.764648 633.201904,2611.303955 634.824097,2611.472900 
	C643.942627,2612.422119 645.238586,2611.672607 649.481750,2603.369873 
	C650.085266,2602.188965 650.877625,2601.062744 651.250793,2599.812256 
	C657.332153,2579.433350 663.544434,2559.090820 669.332153,2538.627930 
	C672.913086,2525.967529 675.899963,2513.136475 679.020142,2500.349365 
	C680.965210,2492.378418 683.748047,2484.446533 681.149841,2475.007324 
	C668.952576,2471.341797 656.381531,2467.388184 643.706909,2463.800293 
	C628.228455,2459.418701 612.618164,2455.501221 597.150208,2451.084473 
	C585.864319,2447.861328 574.806641,2443.821533 563.481995,2440.756104 
	C551.732300,2437.575928 539.694824,2435.460205 527.940674,2432.294189 
	C503.868958,2425.810791 479.886353,2418.993652 455.900299,2412.196533 
	C444.824646,2409.058105 433.861481,2405.522705 422.784271,2402.389893 
	C412.383423,2399.448730 401.935364,2396.655518 391.441406,2394.067627 
	C381.577942,2391.635254 371.508484,2389.976074 361.746155,2387.212158 
	C350.414124,2384.003906 339.425659,2379.582764 328.095581,2376.366211 
	C308.496674,2370.802246 288.742218,2365.786865 269.066467,2360.491455 
	C254.768570,2356.643555 240.492325,2352.715332 224.576111,2348.578613 
M2381.589111,2168.658936 
	C2389.059082,2159.061279 2396.457764,2149.406738 2404.017090,2139.880127 
	C2413.447266,2127.995850 2423.164307,2116.336670 2432.471436,2104.358154 
	C2441.531738,2092.697266 2450.003418,2080.575928 2459.159424,2068.993408 
	C2466.703369,2059.449707 2475.172363,2050.636719 2482.696045,2041.078491 
	C2496.500244,2023.541992 2509.809082,2005.616455 2523.517090,1988.002808 
	C2533.829590,1974.752075 2544.497070,1961.778076 2554.907959,1948.602661 
	C2565.949219,1934.629150 2576.893555,1920.578857 2587.843506,1906.533691 
	C2602.889893,1887.234253 2617.967041,1867.958252 2632.887695,1848.562134 
	C2637.121826,1843.058105 2636.681885,1837.523315 2631.973145,1832.853394 
	C2629.397705,1830.299438 2626.499268,1828.053833 2623.637451,1825.808228 
	C2605.524170,1811.594604 2587.334473,1797.478027 2569.264404,1783.209839 
	C2558.946045,1775.062500 2548.885986,1766.587891 2538.554199,1758.458130 
	C2533.039062,1754.118286 2527.706299,1754.726685 2522.775635,1759.756836 
	C2519.295166,1763.307739 2515.525391,1766.642944 2512.476807,1770.537842 
	C2499.876465,1786.637329 2487.704590,1803.074707 2474.992920,1819.084229 
	C2458.420166,1839.956665 2441.399658,1860.473022 2424.728760,1881.268433 
	C2407.405518,1902.877441 2390.231445,1924.606323 2373.062256,1946.338257 
	C2354.492432,1969.843018 2336.057861,1993.454590 2317.455566,2016.933594 
	C2308.839355,2027.808716 2299.827881,2038.371094 2291.248047,2049.273926 
	C2281.685791,2061.425537 2272.482910,2073.858887 2262.990479,2086.065918 
	C2252.667236,2099.342285 2242.151123,2112.468994 2231.793701,2125.719238 
	C2223.902100,2135.815430 2216.219971,2146.076660 2208.281006,2156.135254 
	C2192.149658,2176.573730 2175.889893,2196.910645 2159.756348,2217.347412 
	C2158.798340,2218.561035 2158.104736,2220.248047 2157.947998,2221.782227 
	C2157.356201,2227.581543 2158.326904,2231.782959 2164.310547,2235.683838 
	C2175.860596,2243.213379 2186.198486,2252.596191 2197.079102,2261.159912 
	C2206.872559,2268.868164 2216.737061,2276.485596 2226.537354,2284.185059 
	C2237.154785,2292.526855 2247.620361,2301.067627 2258.391602,2309.204834 
	C2262.089111,2311.998291 2266.308105,2312.525146 2269.946777,2308.308105 
	C2275.559570,2301.803223 2281.658447,2295.689453 2286.937744,2288.930908 
	C2295.969727,2277.367920 2304.251953,2265.216553 2313.344482,2253.703857 
	C2329.474365,2233.280762 2345.989990,2213.162598 2362.313721,2192.892578 
	C2368.486084,2185.227539 2374.573975,2177.494385 2381.589111,2168.658936 
M685.389526,2243.708008 
	C686.701599,2245.617676 687.919067,2247.600830 689.341431,2249.424561 
	C697.407471,2259.767090 705.415955,2270.157227 713.653320,2280.362305 
	C720.859070,2289.289307 728.229065,2298.090332 735.741577,2306.760986 
	C740.463989,2312.210938 743.412476,2312.802979 748.618164,2309.242920 
	C755.131958,2304.788086 761.406494,2299.972656 767.658569,2295.149658 
	C773.337036,2290.769287 778.811768,2286.126465 784.438538,2281.677734 
	C796.332214,2272.274414 808.267883,2262.923828 820.183594,2253.548340 
	C828.446533,2247.046875 836.520386,2240.281250 845.061951,2234.169678 
	C848.195740,2231.927246 848.971069,2229.547852 849.632446,2226.074707 
	C850.964050,2219.080811 845.431091,2216.039551 842.262817,2211.740967 
	C834.052917,2200.601807 825.610168,2189.630615 817.100647,2178.716797 
	C807.166565,2165.976562 796.976135,2153.435791 787.057129,2140.684082 
	C776.561523,2127.191162 766.398315,2113.437988 755.830200,2100.002930 
	C739.960754,2079.828369 723.864014,2059.832275 707.865540,2039.758911 
	C696.318665,2025.271240 684.815735,2010.748413 673.217407,1996.302002 
	C662.741394,1983.253784 652.075012,1970.357788 641.655396,1957.265137 
	C632.237061,1945.430664 623.089172,1933.381104 613.726013,1921.502197 
	C607.412720,1913.492676 600.802551,1905.715576 594.554688,1897.656494 
	C582.629944,1882.275269 571.035217,1866.636108 558.997559,1851.344727 
	C544.338806,1832.723633 529.449036,1814.282227 514.496704,1795.895142 
	C504.705322,1783.854492 494.776581,1771.917236 484.609619,1760.193726 
	C479.775665,1754.619629 474.361145,1754.124878 468.863281,1758.141724 
	C462.781067,1762.585327 456.839294,1767.226807 450.931763,1771.902710 
	C434.177826,1785.163940 417.453247,1798.462524 400.756104,1811.795288 
	C392.254242,1818.583984 383.648590,1825.262451 375.452209,1832.406494 
	C370.741180,1836.512695 370.390381,1843.175537 373.826965,1848.358521 
	C377.100220,1853.295044 380.287872,1858.317139 383.932129,1862.973877 
	C397.727509,1880.601440 411.689301,1898.098999 425.596252,1915.639282 
	C439.115265,1932.690552 452.520844,1949.833740 466.204193,1966.752197 
	C478.391754,1981.821289 491.149414,1996.433594 503.181061,2011.623291 
	C515.412354,2027.065063 527.036682,2042.986694 538.977661,2058.659668 
	C548.113953,2070.651123 557.280762,2082.619873 566.526428,2094.526855 
	C572.786926,2102.589844 579.162231,2110.564941 585.568970,2118.512695 
	C593.005554,2127.738281 600.632019,2136.811768 607.997559,2146.093262 
	C619.409607,2160.473633 630.652771,2174.987549 642.001282,2189.418457 
	C650.141724,2199.769775 658.327942,2210.085205 666.511475,2220.402588 
	C672.431274,2227.866211 678.380249,2235.307129 685.389526,2243.708008 
z"/>
<path fill="#FE9301" opacity="1.000000" stroke="none" 
	d="
M1.999997,2764.925293 
	C5.325434,2764.109863 8.650871,2764.315674 11.976312,2764.315918 
	C1005.707092,2764.329590 1999.437866,2764.329590 2993.168701,2764.327148 
	C2995.501221,2764.327148 2997.833740,2764.292480 3001.083008,2764.136963 
	C3002.000000,2808.049805 3002.000000,2852.099609 3001.092285,2897.210449 
	C2997.852051,2898.289062 2995.519531,2898.322754 2993.187012,2898.322754 
	C1999.450195,2898.325195 1005.713440,2898.325195 11.976634,2898.311523 
	C8.651090,2898.311279 5.325546,2898.108154 2.000001,2898.000000 
	C2.000000,2853.950195 2.000000,2809.900391 1.999997,2764.925293 
z"/>
<path fill="#010100" opacity="1.000000" stroke="none" 
	d="
M2.000001,2898.916016 
	C5.325546,2898.108154 8.651090,2898.311279 11.976634,2898.311523 
	C1005.713440,2898.325195 1999.450195,2898.325195 2993.187012,2898.322754 
	C2995.519531,2898.322754 2997.852051,2898.289062 3001.092285,2898.135742 
	C3002.000000,2932.657715 3002.000000,2967.315186 3002.000000,3001.902832 
	C2002.000000,3001.902832 1002.000000,3001.902832 2.000000,3001.902832 
	C2.000000,2967.814453 2.000000,2933.822998 2.000001,2898.916016 
z"/>
<path fill="#FD9301" opacity="1.000000" stroke="none" 
	d="
M2008.000244,410.352722 
	C2136.955566,410.352722 2264.910645,410.352722 2394.110352,410.352722 
	C2394.110352,280.408203 2394.110352,150.997910 2394.110352,20.960762 
	C2433.838623,20.960762 2472.327881,20.960762 2510.803223,20.960762 
	C2512.676514,28.148220 2513.431641,524.822571 2511.465332,541.582642 
	C2473.528320,541.582642 2435.418457,541.582642 2396.372314,541.582642 
	C2396.372314,606.963623 2396.372314,671.119751 2396.372314,736.145386 
	C2324.243408,736.145386 2253.066162,736.145386 2180.581055,736.145386 
	C2180.581055,743.826904 2180.369629,750.672424 2180.652100,757.497498 
	C2180.855469,762.406921 2182.203369,767.288147 2182.213135,772.183594 
	C2182.336670,834.512085 2183.685547,896.877197 2182.040527,959.162109 
	C2178.425781,1096.045166 2181.104248,1232.925781 2180.478271,1369.803467 
	C2179.853271,1506.457153 2180.374756,1643.115967 2180.305664,1779.772461 
	C2180.294678,1801.503174 2172.460693,1820.812378 2160.114502,1838.240845 
	C2134.544922,1874.335938 2098.057129,1893.412842 2056.223877,1904.082397 
	C2032.412231,1910.155640 2008.112793,1909.576904 1983.882690,1910.216309 
	C1980.271606,1910.311646 1976.655762,1910.229614 1971.975830,1910.229614 
	C1971.807373,1914.696533 1971.537598,1918.555420 1971.535034,1922.414551 
	C1971.500488,1975.743896 1971.572144,2029.073486 1971.384644,2082.402100 
	C1971.366455,2087.572266 1969.705200,2092.724121 1968.988770,2097.909668 
	C1968.581909,2100.854004 1968.377930,2103.848633 1968.369141,2106.821533 
	C1968.314453,2125.153564 1967.769775,2143.507812 1968.486206,2161.811768 
	C1969.379883,2184.641357 1961.203247,2204.195312 1948.399414,2222.169434 
	C1924.035767,2256.370850 1889.458496,2275.152832 1849.886475,2285.856934 
	C1832.838745,2290.468506 1815.464722,2292.760254 1797.646851,2292.468506 
	C1767.657104,2291.977539 1737.653564,2292.328857 1707.655762,2292.325684 
	C1704.375732,2292.325439 1701.095703,2292.325684 1696.325439,2292.325684 
	C1696.325439,2296.902832 1696.325439,2300.757568 1696.325317,2304.612305 
	C1696.322510,2379.939941 1696.223755,2455.268066 1696.471191,2530.594971 
	C1696.494873,2537.799316 1694.391357,2543.251709 1689.856201,2548.593262 
	C1641.440186,2605.618652 1592.895752,2662.539795 1545.086060,2720.070801 
	C1536.869629,2729.958008 1528.915771,2735.250000 1515.819580,2733.882568 
	C1504.609131,2732.711670 1493.168945,2733.340332 1481.851685,2733.756348 
	C1475.890869,2733.975342 1472.041992,2731.794189 1468.291260,2727.299561 
	C1444.861206,2699.221191 1421.171021,2671.359619 1397.557739,2643.434326 
	C1370.938843,2611.955078 1344.397949,2580.408936 1317.606812,2549.076660 
	C1312.592896,2543.212891 1310.182495,2537.250488 1310.209961,2529.339355 
	C1310.469849,2454.679199 1310.360107,2380.017578 1310.356934,2305.356445 
	C1310.356812,2301.419678 1310.356934,2297.483154 1310.356934,2292.325195 
	C1305.938599,2292.325195 1302.383179,2292.324707 1298.827881,2292.325195 
	C1267.830200,2292.328369 1236.830566,2292.553711 1205.835327,2292.282959 
	C1159.287109,2291.876709 1117.596558,2277.271973 1081.689331,2247.561768 
	C1061.488159,2230.847168 1047.368774,2209.679932 1040.495483,2184.104980 
	C1039.383667,2179.967529 1038.498901,2175.636719 1038.412231,2171.376709 
	C1037.438721,2123.513428 1036.401489,2075.649414 1035.876953,2027.779907 
	C1035.482544,1991.786987 1035.807739,1955.786133 1035.812744,1919.788818 
	C1035.813110,1917.150879 1035.812866,1914.512817 1035.812866,1910.688477 
	C1024.468628,1910.339478 1013.623169,1909.594604 1002.790894,1909.753174 
	C975.523315,1910.152588 949.116821,1905.616455 923.797302,1895.735229 
	C889.816650,1882.474121 860.841003,1862.525269 841.827576,1830.417480 
	C831.654907,1813.239136 826.242126,1794.729614 826.251038,1774.493164 
	C826.366455,1512.845947 826.327515,1251.198608 826.327515,989.551392 
	C822.315125,917.696228 825.193298,845.779358 824.493835,773.894287 
	C824.400940,764.344788 825.760315,754.785889 826.290283,745.222595 
	C826.433228,742.641968 826.000000,740.029419 825.777405,736.601868 
	C754.179993,736.601868 682.972595,736.601868 610.836426,736.601868 
	C610.836426,671.583984 610.836426,607.413208 610.836426,541.879639 
	C597.468079,541.486938 584.948242,541.721497 572.442932,541.681641 
	C559.444031,541.640198 546.444824,541.672424 533.445801,541.672424 
	C520.846558,541.672424 508.247284,541.672424 494.995941,541.672424 
	C494.995941,367.693756 494.995941,194.601425 494.995941,20.918064 
	C533.870422,20.918064 572.362488,20.918064 612.132385,20.918064 
	C612.132385,150.491364 612.132385,279.893951 612.132385,410.352722 
	C1077.937866,410.352722 1542.468994,410.352722 2008.000244,410.352722 
M1793.000122,738.328857 
	C1504.454224,738.328857 1215.908203,738.328857 926.551514,738.328857 
	C926.889893,745.495361 927.507202,751.680542 927.423889,757.856262 
	C926.426086,831.748535 929.770081,905.675537 925.672424,979.542175 
	C925.672485,1231.502563 925.657349,1483.463013 925.742554,1735.423462 
	C925.745239,1743.358276 925.955688,1751.457397 927.493835,1759.196777 
	C932.173584,1782.743774 947.661499,1797.477905 968.697510,1807.139893 
	C981.996765,1813.248413 996.224426,1814.451294 1010.615234,1814.312866 
	C1058.182739,1813.855103 1105.755127,1813.515625 1153.318237,1813.002197 
	C1274.618530,1811.692627 1395.944336,1812.069336 1517.255737,1812.638550 
	C1638.812256,1813.208984 1760.378052,1810.467651 1881.931519,1814.231934 
	C1920.553711,1815.428101 1959.247070,1814.497314 1997.905640,1814.220703 
	C2006.494751,1814.159302 2015.334229,1813.806274 2023.610718,1811.768921 
	C2050.476074,1805.156372 2071.054932,1790.477051 2078.595703,1762.528442 
	C2081.228271,1752.770752 2081.532715,1742.168335 2081.540527,1731.950684 
	C2081.699463,1527.649536 2081.876221,1323.348022 2081.508789,1119.047363 
	C2081.415527,1067.156982 2081.708984,1015.275452 2080.339111,963.350098 
	C2078.406494,890.092651 2080.175049,816.737610 2080.313721,743.424255 
	C2080.316650,741.895142 2079.744141,740.364990 2079.339600,738.328857 
	C1984.205200,738.328857 1889.602661,738.328857 1793.000122,738.328857 
M1709.000122,1909.670532 
	C1516.817261,1909.670532 1324.634399,1909.670532 1131.670654,1909.670532 
	C1131.670654,1913.811523 1131.670776,1916.743652 1131.670776,1919.675659 
	C1131.670776,1994.333862 1131.670532,2068.991943 1131.671021,2143.650146 
	C1131.671021,2145.316650 1131.615967,2146.985840 1131.692139,2148.648926 
	C1132.634644,2169.242188 1146.801636,2184.360596 1167.300049,2186.268799 
	C1175.880127,2187.067383 1184.519531,2187.594482 1193.133057,2187.607178 
	C1270.457275,2187.721436 1347.781860,2187.706787 1425.106323,2187.704834 
	C1557.757812,2187.701416 1690.409180,2187.720947 1823.060547,2187.563721 
	C1830.973877,2187.554443 1839.128418,2187.023438 1846.749023,2185.080811 
	C1864.893921,2180.455811 1875.612061,2164.998779 1875.631592,2144.504150 
	C1875.703735,2069.179443 1875.664185,1993.854736 1875.642822,1918.530029 
	C1875.642090,1915.941772 1875.388184,1913.353394 1875.194824,1909.670532 
	C1820.109985,1909.670532 1765.555176,1909.670532 1709.000122,1909.670532 
M1632.999878,651.673340 
	C1846.502319,651.673340 2060.004883,651.673340 2273.326416,651.673340 
	C2275.758545,635.952515 2274.868896,533.027405 2272.356934,526.200195 
	C2271.156006,526.032349 2269.853516,525.690735 2268.551025,525.690674 
	C1758.351929,525.672546 1248.152954,525.677368 737.953918,525.704651 
	C736.980591,525.704712 736.003357,526.022827 735.036011,526.229797 
	C734.716736,526.298096 734.385193,526.435242 734.127747,526.631042 
	C733.870239,526.827026 733.698364,527.135620 732.849304,528.186707 
	C732.849304,568.499329 732.849304,609.603760 732.849304,651.673340 
	C1032.661011,651.673340 1331.830322,651.673340 1632.999878,651.673340 
M1568.998291,2292.329834 
	C1513.140137,2292.329834 1457.281860,2292.329834 1400.830200,2292.329834 
	C1400.629272,2296.635742 1400.346680,2299.884766 1400.345215,2303.133789 
	C1400.317261,2365.422119 1400.317871,2427.710449 1400.332764,2489.998779 
	C1400.333496,2493.325195 1400.236572,2496.690430 1400.699829,2499.964600 
	C1401.005249,2502.123779 1401.821899,2504.466309 1403.127197,2506.179932 
	C1406.878906,2511.104980 1411.036621,2515.718750 1414.961914,2520.514648 
	C1432.219238,2541.599854 1449.403076,2562.745605 1466.711304,2583.789062 
	C1475.996704,2595.078369 1485.287109,2606.374756 1494.944458,2617.342773 
	C1500.886963,2624.091797 1505.430298,2623.911377 1511.753784,2617.689453 
	C1513.170532,2616.295166 1514.432129,2614.736328 1515.703735,2613.202393 
	C1532.880005,2592.478516 1550.208618,2571.877441 1567.154053,2550.966309 
	C1577.781616,2537.852295 1586.954590,2523.436768 1598.524048,2511.262695 
	C1603.928589,2505.575684 1606.438965,2500.733643 1606.424805,2493.354248 
	C1606.301147,2429.067627 1606.358765,2364.780762 1606.312744,2300.493896 
	C1606.310913,2297.973145 1605.807617,2295.452881 1605.473633,2292.329834 
	C1593.547607,2292.329834 1582.272217,2292.329834 1568.998291,2292.329834 
z"/>
<path fill="#FC9202" opacity="1.000000" stroke="none" 
	d="
M2752.345215,2508.176270 
	C2746.134277,2509.614990 2740.703125,2510.847656 2735.380371,2512.442139 
	C2722.868896,2516.189941 2710.439941,2520.213623 2697.917236,2523.922852 
	C2690.353271,2526.163086 2682.667725,2527.990723 2675.052490,2530.061768 
	C2654.747070,2535.584229 2634.474365,2541.229248 2614.143066,2546.655029 
	C2591.542236,2552.686035 2568.819336,2558.270508 2546.283447,2564.531494 
	C2527.015137,2569.884521 2507.991455,2576.113770 2488.750488,2581.570557 
	C2478.959961,2584.347168 2468.846191,2585.973877 2459.030273,2588.672363 
	C2448.321533,2591.616211 2437.851562,2595.423584 2427.159180,2598.435303 
	C2417.716064,2601.094727 2408.121826,2603.226562 2398.572266,2605.498535 
	C2391.281006,2607.233154 2383.977295,2608.930420 2376.634277,2610.424316 
	C2373.420654,2611.078369 2370.098877,2611.222412 2366.819580,2611.527344 
	C2363.507812,2611.835205 2361.054443,2610.781982 2359.800293,2607.373291 
	C2356.518799,2598.451904 2352.537354,2589.746094 2349.868408,2580.650879 
	C2344.778809,2563.308105 2340.412109,2545.752930 2335.737549,2528.288086 
	C2332.427979,2515.923340 2328.914062,2503.608398 2325.885742,2491.175537 
	C2324.739746,2486.469727 2324.699707,2481.494629 2324.108398,2476.223145 
	C2329.199707,2474.247559 2333.372070,2472.238037 2337.761475,2470.993896 
	C2356.154053,2465.780518 2374.639160,2460.894043 2393.035400,2455.693848 
	C2405.936523,2452.046875 2418.427246,2447.364014 2431.904297,2445.279053 
	C2443.403076,2443.500244 2454.245605,2437.827148 2465.593750,2434.643555 
	C2482.047607,2430.027832 2498.745605,2426.289307 2515.245850,2421.828857 
	C2530.732910,2417.642578 2546.058594,2412.861084 2561.528809,2408.608643 
	C2575.180664,2404.856201 2588.973145,2401.614746 2602.629883,2397.878418 
	C2612.055908,2395.299805 2621.315674,2392.116455 2630.727051,2389.480225 
	C2637.633057,2387.545898 2644.692627,2386.165771 2651.634766,2384.351807 
	C2663.742676,2381.188232 2675.891357,2378.144775 2687.879150,2374.568115 
	C2703.904785,2369.786377 2720.458984,2367.036865 2736.186768,2360.986084 
	C2745.317383,2357.473633 2755.213135,2355.960938 2764.749023,2353.487793 
	C2782.291992,2348.937988 2799.863525,2344.491211 2817.349609,2339.730957 
	C2840.810791,2333.343750 2864.158691,2326.536621 2887.655029,2320.284668 
	C2893.323975,2318.776367 2899.384521,2318.739990 2906.393799,2317.889648 
	C2910.219971,2329.086426 2913.982178,2339.596436 2917.396240,2350.218506 
	C2921.412109,2362.713379 2925.327148,2375.248535 2928.905029,2387.874268 
	C2931.580322,2397.315186 2933.525146,2406.960693 2936.032715,2416.452637 
	C2938.032227,2424.021240 2940.816406,2431.401611 2942.492676,2439.032471 
	C2945.328857,2451.945068 2943.053955,2453.656982 2930.900146,2459.264648 
	C2922.953369,2462.930908 2913.883545,2464.141113 2905.345459,2466.552734 
	C2893.048340,2470.025879 2880.785400,2473.620605 2868.492676,2477.110596 
	C2851.756592,2481.862061 2835.054199,2486.740723 2818.250488,2491.241699 
	C2796.603271,2497.040283 2774.870361,2502.518311 2752.345215,2508.176270 
z"/>
<path fill="#FC9202" opacity="1.000000" stroke="none" 
	d="
M225.391266,2348.700684 
	C240.492325,2352.715332 254.768570,2356.643555 269.066467,2360.491455 
	C288.742218,2365.786865 308.496674,2370.802246 328.095581,2376.366211 
	C339.425659,2379.582764 350.414124,2384.003906 361.746155,2387.212158 
	C371.508484,2389.976074 381.577942,2391.635254 391.441406,2394.067627 
	C401.935364,2396.655518 412.383423,2399.448730 422.784271,2402.389893 
	C433.861481,2405.522705 444.824646,2409.058105 455.900299,2412.196533 
	C479.886353,2418.993652 503.868958,2425.810791 527.940674,2432.294189 
	C539.694824,2435.460205 551.732300,2437.575928 563.481995,2440.756104 
	C574.806641,2443.821533 585.864319,2447.861328 597.150208,2451.084473 
	C612.618164,2455.501221 628.228455,2459.418701 643.706909,2463.800293 
	C656.381531,2467.388184 668.952576,2471.341797 681.149841,2475.007324 
	C683.748047,2484.446533 680.965210,2492.378418 679.020142,2500.349365 
	C675.899963,2513.136475 672.913086,2525.967529 669.332153,2538.627930 
	C663.544434,2559.090820 657.332153,2579.433350 651.250793,2599.812256 
	C650.877625,2601.062744 650.085266,2602.188965 649.481750,2603.369873 
	C645.238586,2611.672607 643.942627,2612.422119 634.824097,2611.472900 
	C633.201904,2611.303955 631.612366,2610.764648 630.023865,2610.336426 
	C617.758606,2607.027344 605.674316,2602.468506 593.192566,2600.679932 
	C575.156189,2598.095947 558.603271,2590.581299 540.807495,2587.133789 
	C522.505432,2583.588379 504.814789,2576.940430 486.793854,2571.872803 
	C472.570312,2567.873047 458.252014,2564.209717 443.975037,2560.399902 
	C428.697205,2556.322754 413.376312,2552.399902 398.149200,2548.141846 
	C371.866272,2540.791748 345.651764,2533.197510 319.387878,2525.778809 
	C303.940918,2521.415283 288.503632,2517.003174 272.975372,2512.944336 
	C236.969543,2503.532959 200.865875,2494.493164 164.900360,2484.932129 
	C153.542679,2481.913330 142.566299,2477.487061 131.287094,2474.137207 
	C122.492737,2471.525635 113.488800,2469.625000 104.598030,2467.331055 
	C96.332199,2465.197998 88.041130,2463.138428 79.853432,2460.732666 
	C64.797714,2456.308350 60.604786,2447.863037 65.120110,2432.948975 
	C71.781334,2410.946533 77.919418,2388.785400 84.612694,2366.792969 
	C89.492912,2350.758057 94.909142,2334.886230 100.054909,2319.038574 
	C105.091164,2319.038574 109.202675,2318.290283 112.925293,2319.176025 
	C125.107407,2322.074951 137.150772,2325.558105 149.242157,2328.836182 
	C157.490219,2331.072266 165.718109,2333.383301 173.974777,2335.586426 
	C190.168594,2339.907715 206.375092,2344.181396 222.582520,2348.451416 
	C223.214325,2348.617920 223.910156,2348.541504 225.391266,2348.700684 
z"/>
<path fill="#FC9202" opacity="1.000000" stroke="none" 
	d="
M2381.145020,2169.225586 
	C2374.573975,2177.494385 2368.486084,2185.227539 2362.313721,2192.892578 
	C2345.989990,2213.162598 2329.474365,2233.280762 2313.344482,2253.703857 
	C2304.251953,2265.216553 2295.969727,2277.367920 2286.937744,2288.930908 
	C2281.658447,2295.689453 2275.559570,2301.803223 2269.946777,2308.308105 
	C2266.308105,2312.525146 2262.089111,2311.998291 2258.391602,2309.204834 
	C2247.620361,2301.067627 2237.154785,2292.526855 2226.537354,2284.185059 
	C2216.737061,2276.485596 2206.872559,2268.868164 2197.079102,2261.159912 
	C2186.198486,2252.596191 2175.860596,2243.213379 2164.310547,2235.683838 
	C2158.326904,2231.782959 2157.356201,2227.581543 2157.947998,2221.782227 
	C2158.104736,2220.248047 2158.798340,2218.561035 2159.756348,2217.347412 
	C2175.889893,2196.910645 2192.149658,2176.573730 2208.281006,2156.135254 
	C2216.219971,2146.076660 2223.902100,2135.815430 2231.793701,2125.719238 
	C2242.151123,2112.468994 2252.667236,2099.342285 2262.990479,2086.065918 
	C2272.482910,2073.858887 2281.685791,2061.425537 2291.248047,2049.273926 
	C2299.827881,2038.371094 2308.839355,2027.808716 2317.455566,2016.933594 
	C2336.057861,1993.454590 2354.492432,1969.843018 2373.062256,1946.338257 
	C2390.231445,1924.606323 2407.405518,1902.877441 2424.728760,1881.268433 
	C2441.399658,1860.473022 2458.420166,1839.956665 2474.992920,1819.084229 
	C2487.704590,1803.074707 2499.876465,1786.637329 2512.476807,1770.537842 
	C2515.525391,1766.642944 2519.295166,1763.307739 2522.775635,1759.756836 
	C2527.706299,1754.726685 2533.039062,1754.118286 2538.554199,1758.458130 
	C2548.885986,1766.587891 2558.946045,1775.062500 2569.264404,1783.209839 
	C2587.334473,1797.478027 2605.524170,1811.594604 2623.637451,1825.808228 
	C2626.499268,1828.053833 2629.397705,1830.299438 2631.973145,1832.853394 
	C2636.681885,1837.523315 2637.121826,1843.058105 2632.887695,1848.562134 
	C2617.967041,1867.958252 2602.889893,1887.234253 2587.843506,1906.533691 
	C2576.893555,1920.578857 2565.949219,1934.629150 2554.907959,1948.602661 
	C2544.497070,1961.778076 2533.829590,1974.752075 2523.517090,1988.002808 
	C2509.809082,2005.616455 2496.500244,2023.541992 2482.696045,2041.078491 
	C2475.172363,2050.636719 2466.703369,2059.449707 2459.159424,2068.993408 
	C2450.003418,2080.575928 2441.531738,2092.697266 2432.471436,2104.358154 
	C2423.164307,2116.336670 2413.447266,2127.995850 2404.017090,2139.880127 
	C2396.457764,2149.406738 2389.059082,2159.061279 2381.145020,2169.225586 
z"/>
<path fill="#FC9202" opacity="1.000000" stroke="none" 
	d="
M684.852905,2243.232910 
	C678.380249,2235.307129 672.431274,2227.866211 666.511475,2220.402588 
	C658.327942,2210.085205 650.141724,2199.769775 642.001282,2189.418457 
	C630.652771,2174.987549 619.409607,2160.473633 607.997559,2146.093262 
	C600.632019,2136.811768 593.005554,2127.738281 585.568970,2118.512695 
	C579.162231,2110.564941 572.786926,2102.589844 566.526428,2094.526855 
	C557.280762,2082.619873 548.113953,2070.651123 538.977661,2058.659668 
	C527.036682,2042.986694 515.412354,2027.065063 503.181061,2011.623291 
	C491.149414,1996.433594 478.391754,1981.821289 466.204193,1966.752197 
	C452.520844,1949.833740 439.115265,1932.690552 425.596252,1915.639282 
	C411.689301,1898.098999 397.727509,1880.601440 383.932129,1862.973877 
	C380.287872,1858.317139 377.100220,1853.295044 373.826965,1848.358521 
	C370.390381,1843.175537 370.741180,1836.512695 375.452209,1832.406494 
	C383.648590,1825.262451 392.254242,1818.583984 400.756104,1811.795288 
	C417.453247,1798.462524 434.177826,1785.163940 450.931763,1771.902710 
	C456.839294,1767.226807 462.781067,1762.585327 468.863281,1758.141724 
	C474.361145,1754.124878 479.775665,1754.619629 484.609619,1760.193726 
	C494.776581,1771.917236 504.705322,1783.854492 514.496704,1795.895142 
	C529.449036,1814.282227 544.338806,1832.723633 558.997559,1851.344727 
	C571.035217,1866.636108 582.629944,1882.275269 594.554688,1897.656494 
	C600.802551,1905.715576 607.412720,1913.492676 613.726013,1921.502197 
	C623.089172,1933.381104 632.237061,1945.430664 641.655396,1957.265137 
	C652.075012,1970.357788 662.741394,1983.253784 673.217407,1996.302002 
	C684.815735,2010.748413 696.318665,2025.271240 707.865540,2039.758911 
	C723.864014,2059.832275 739.960754,2079.828369 755.830200,2100.002930 
	C766.398315,2113.437988 776.561523,2127.191162 787.057129,2140.684082 
	C796.976135,2153.435791 807.166565,2165.976562 817.100647,2178.716797 
	C825.610168,2189.630615 834.052917,2200.601807 842.262817,2211.740967 
	C845.431091,2216.039551 850.964050,2219.080811 849.632446,2226.074707 
	C848.971069,2229.547852 848.195740,2231.927246 845.061951,2234.169678 
	C836.520386,2240.281250 828.446533,2247.046875 820.183594,2253.548340 
	C808.267883,2262.923828 796.332214,2272.274414 784.438538,2281.677734 
	C778.811768,2286.126465 773.337036,2290.769287 767.658569,2295.149658 
	C761.406494,2299.972656 755.131958,2304.788086 748.618164,2309.242920 
	C743.412476,2312.802979 740.463989,2312.210938 735.741577,2306.760986 
	C728.229065,2298.090332 720.859070,2289.289307 713.653320,2280.362305 
	C705.415955,2270.157227 697.407471,2259.767090 689.341431,2249.424561 
	C687.919067,2247.600830 686.701599,2245.617676 684.852905,2243.232910 
z"/>
<path fill="#000000" opacity="1.000000" stroke="none" 
	d="
M1794.000244,738.328857 
	C1889.602661,738.328857 1984.205200,738.328857 2079.339600,738.328857 
	C2079.744141,740.364990 2080.316650,741.895142 2080.313721,743.424255 
	C2080.175049,816.737610 2078.406494,890.092651 2080.339111,963.350098 
	C2081.708984,1015.275452 2081.415527,1067.156982 2081.508789,1119.047363 
	C2081.876221,1323.348022 2081.699463,1527.649536 2081.540527,1731.950684 
	C2081.532715,1742.168335 2081.228271,1752.770752 2078.595703,1762.528442 
	C2071.054932,1790.477051 2050.476074,1805.156372 2023.610718,1811.768921 
	C2015.334229,1813.806274 2006.494751,1814.159302 1997.905640,1814.220703 
	C1959.247070,1814.497314 1920.553711,1815.428101 1881.931519,1814.231934 
	C1760.378052,1810.467651 1638.812256,1813.208984 1517.255737,1812.638550 
	C1395.944336,1812.069336 1274.618530,1811.692627 1153.318237,1813.002197 
	C1105.755127,1813.515625 1058.182739,1813.855103 1010.615234,1814.312866 
	C996.224426,1814.451294 981.996765,1813.248413 968.697510,1807.139893 
	C947.661499,1797.477905 932.173584,1782.743774 927.493835,1759.196777 
	C925.955688,1751.457397 925.745239,1743.358276 925.742554,1735.423462 
	C925.657349,1483.463013 925.672485,1231.502563 925.672424,979.542175 
	C929.770081,905.675537 926.426086,831.748535 927.423889,757.856262 
	C927.507202,751.680542 926.889893,745.495361 926.551514,738.328857 
	C1215.908203,738.328857 1504.454224,738.328857 1794.000244,738.328857 
z"/>
<path fill="#010000" opacity="1.000000" stroke="none" 
	d="
M1710.000244,1909.670532 
	C1765.555176,1909.670532 1820.109985,1909.670532 1875.194824,1909.670532 
	C1875.388184,1913.353394 1875.642090,1915.941772 1875.642822,1918.530029 
	C1875.664185,1993.854736 1875.703735,2069.179443 1875.631592,2144.504150 
	C1875.612061,2164.998779 1864.893921,2180.455811 1846.749023,2185.080811 
	C1839.128418,2187.023438 1830.973877,2187.554443 1823.060547,2187.563721 
	C1690.409180,2187.720947 1557.757812,2187.701416 1425.106323,2187.704834 
	C1347.781860,2187.706787 1270.457275,2187.721436 1193.133057,2187.607178 
	C1184.519531,2187.594482 1175.880127,2187.067383 1167.300049,2186.268799 
	C1146.801636,2184.360596 1132.634644,2169.242188 1131.692139,2148.648926 
	C1131.615967,2146.985840 1131.671021,2145.316650 1131.671021,2143.650146 
	C1131.670532,2068.991943 1131.670776,1994.333862 1131.670776,1919.675659 
	C1131.670776,1916.743652 1131.670654,1913.811523 1131.670654,1909.670532 
	C1324.634399,1909.670532 1516.817261,1909.670532 1710.000244,1909.670532 
z"/>
<path fill="#010100" opacity="1.000000" stroke="none" 
	d="
M1631.999756,651.673340 
	C1331.830322,651.673340 1032.661011,651.673340 732.849304,651.673340 
	C732.849304,609.603760 732.849304,568.499329 732.849304,528.186707 
	C733.698364,527.135620 733.870239,526.827026 734.127747,526.631042 
	C734.385193,526.435242 734.716736,526.298096 735.036011,526.229797 
	C736.003357,526.022827 736.980591,525.704712 737.953918,525.704651 
	C1248.152954,525.677368 1758.351929,525.672546 2268.551025,525.690674 
	C2269.853516,525.690735 2271.156006,526.032349 2272.356934,526.200195 
	C2274.868896,533.027405 2275.758545,635.952515 2273.326416,651.673340 
	C2060.004883,651.673340 1846.502319,651.673340 1631.999756,651.673340 
z"/>
<path fill="#010100" opacity="1.000000" stroke="none" 
	d="
M1569.997559,2292.329834 
	C1582.272217,2292.329834 1593.547607,2292.329834 1605.473633,2292.329834 
	C1605.807617,2295.452881 1606.310913,2297.973145 1606.312744,2300.493896 
	C1606.358765,2364.780762 1606.301147,2429.067627 1606.424805,2493.354248 
	C1606.438965,2500.733643 1603.928589,2505.575684 1598.524048,2511.262695 
	C1586.954590,2523.436768 1577.781616,2537.852295 1567.154053,2550.966309 
	C1550.208618,2571.877441 1532.880005,2592.478516 1515.703735,2613.202393 
	C1514.432129,2614.736328 1513.170532,2616.295166 1511.753784,2617.689453 
	C1505.430298,2623.911377 1500.886963,2624.091797 1494.944458,2617.342773 
	C1485.287109,2606.374756 1475.996704,2595.078369 1466.711304,2583.789062 
	C1449.403076,2562.745605 1432.219238,2541.599854 1414.961914,2520.514648 
	C1411.036621,2515.718750 1406.878906,2511.104980 1403.127197,2506.179932 
	C1401.821899,2504.466309 1401.005249,2502.123779 1400.699829,2499.964600 
	C1400.236572,2496.690430 1400.333496,2493.325195 1400.332764,2489.998779 
	C1400.317871,2427.710449 1400.317261,2365.422119 1400.345215,2303.133789 
	C1400.346680,2299.884766 1400.629272,2296.635742 1400.830200,2292.329834 
	C1457.281860,2292.329834 1513.140137,2292.329834 1569.997559,2292.329834 
z"/>
</svg>